<?xml version="1.0" encoding="UTF-8" standalone="no"?>
<!DOCTYPE svg PUBLIC "-//W3C//DTD SVG 1.1//EN" "http://www.w3.org/Graphics/SVG/1.1/DTD/svg11.dtd">
<svg width="100%" height="100%" viewBox="0 0 620 620" version="1.1" xmlns="http://www.w3.org/2000/svg" xmlns:xlink="http://www.w3.org/1999/xlink" xml:space="preserve" xmlns:serif="http://www.serif.com/" style="fill-rule:evenodd;clip-rule:evenodd;stroke-linejoin:round;stroke-miterlimit:2;">
    <g id="_-006885ff" serif:id="#006885ff" transform="matrix(0.62,0,0,0.62,0,0)">
        <path d="M0,0L1000,0L1000,1000L0,1000L0,0M196.15,82.31C186.15,123.88 176.44,165.52 166.53,207.11C163.05,221.24 160.09,235.51 156.3,249.56C157.01,249.58 158.43,249.63 159.14,249.66C158.86,251.12 158.68,252.6 158.58,254.08C159.63,255.34 161.58,254.54 163,254.81C203.21,254.76 243.42,254.76 283.62,254.81C252.05,388.07 220.52,521.35 188.99,654.63C168.11,742.37 147.6,830.21 126.53,917.91C127.18,917.93 128.47,917.95 129.11,917.96C128.75,919.51 128.41,921.07 128.09,922.65C156.04,922.9 184,922.69 211.95,922.76C257.2,922.71 302.46,922.87 347.71,922.68C365.45,849.04 382.7,775.27 400.12,701.55C494.24,701.38 588.36,701.66 682.48,701.41C682.69,704.58 682.69,707.76 682.64,710.94C682.69,779.67 682.57,848.39 682.7,917.12C684.73,915.25 685.87,912.69 687.35,910.41C772.28,773.58 857.06,636.67 942.05,499.88C939.9,496.1 937.5,492.47 935.25,488.76C857.27,363.05 779.3,237.33 701.32,111.61C695.04,101.85 689.4,91.66 682.73,82.17C682.56,154.09 682.64,226.01 682.69,297.93C620.35,298.07 558.01,298 495.67,297.96C497.07,293.01 498.09,287.96 499.25,282.95C501.2,273.52 504.06,264.31 505.8,254.83C548.78,254.68 591.77,254.89 634.76,254.72C636.55,247.9 638.28,241.06 639.66,234.14C651.63,184.8 662.96,135.31 674.89,85.96C673.28,85.87 671.66,85.86 670.07,86.02C667.32,97.02 665.38,108.23 662.08,119.09C664.71,106.8 667.66,94.57 670.85,82.42C666.23,82.23 661.6,82.35 656.98,82.32C503.37,82.31 349.76,82.34 196.15,82.31Z" style="fill:rgb(0,104,133);fill-rule:nonzero;"/>
    </g>
    <g id="_-ffffffff" serif:id="#ffffffff" transform="matrix(0.62,0,0,0.62,0,0)">
        <path d="M196.15,82.31C349.76,82.34 503.37,82.31 656.98,82.32C661.6,82.35 666.23,82.23 670.85,82.42C667.66,94.57 664.71,106.8 662.08,119.09C651.67,162.57 641.38,206.08 631.18,249.61C599.44,249.77 567.69,249.64 535.95,249.68C524.72,249.88 513.42,249.29 502.23,249.96C451.06,465.62 400.12,681.34 348.98,897.02C347.35,903.95 345.63,910.86 344.23,917.85C272.53,918.18 200.82,917.95 129.11,917.96C128.47,917.95 127.18,917.93 126.53,917.91C147.6,830.21 168.11,742.37 188.99,654.63C220.52,521.35 252.05,388.07 283.62,254.81C284.05,253.11 284.46,251.41 284.87,249.71C242.96,249.63 201.05,249.73 159.14,249.66C158.43,249.63 157.01,249.58 156.3,249.56C160.09,235.51 163.05,221.24 166.53,207.11C176.44,165.52 186.15,123.88 196.15,82.31Z" style="fill:white;fill-rule:nonzero;"/>
    </g>
    <g id="_-d6492bff" serif:id="#d6492bff" transform="matrix(0.62,0,0,0.62,0,0)">
        <path d="M682.73,82.17C689.4,91.66 695.04,101.85 701.32,111.61C779.3,237.33 857.27,363.05 935.25,488.76C937.5,492.47 939.9,496.1 942.05,499.88C857.06,636.67 772.28,773.58 687.35,910.41C685.87,912.69 684.73,915.25 682.7,917.12C682.57,848.39 682.69,779.67 682.64,710.94C682.69,707.76 682.69,704.58 682.48,701.41C588.36,701.66 494.24,701.38 400.12,701.55C430.47,571.99 461.42,442.57 491.91,313.04C493.11,308 494.15,302.92 495.67,297.96C558.01,298 620.35,298.07 682.69,297.93C682.64,226.01 682.56,154.09 682.73,82.17Z" style="fill:rgb(214,73,43);fill-rule:nonzero;"/>
    </g>
    <g id="_-1c292eff" serif:id="#1c292eff" transform="matrix(0.62,0,0,0.62,0,0)">
        <path d="M670.07,86.02C671.66,85.86 673.28,85.87 674.89,85.96C662.96,135.31 651.63,184.8 639.66,234.14C638.28,241.06 636.55,247.9 634.76,254.72C591.77,254.89 548.78,254.68 505.8,254.83C504.06,264.31 501.2,273.52 499.25,282.95C498.09,287.96 497.07,293.01 495.67,297.96C494.15,302.92 493.11,308 491.91,313.04C461.42,442.57 430.47,571.99 400.12,701.55C382.7,775.27 365.45,849.04 347.71,922.68C302.46,922.87 257.2,922.71 211.95,922.76C184,922.69 156.04,922.9 128.09,922.65C128.41,921.07 128.75,919.51 129.11,917.96C200.82,917.95 272.53,918.18 344.23,917.85C345.63,910.86 347.35,903.95 348.98,897.02C400.12,681.34 451.06,465.62 502.23,249.96C513.42,249.29 524.72,249.88 535.95,249.68C567.69,249.64 599.44,249.77 631.18,249.61C641.38,206.08 651.67,162.57 662.08,119.09C665.38,108.23 667.32,97.02 670.07,86.02Z" style="fill:rgb(28,41,46);fill-rule:nonzero;"/>
        <path d="M159.14,249.66C201.05,249.73 242.96,249.63 284.87,249.71C284.46,251.41 284.05,253.11 283.62,254.81C243.42,254.76 203.21,254.76 163,254.81C161.58,254.54 159.63,255.34 158.58,254.08C158.68,252.6 158.86,251.12 159.14,249.66Z" style="fill:rgb(28,41,46);fill-rule:nonzero;"/>
    </g>
</svg>
